solid Exported from Blender-2.79 (sub 0)
facet normal 0.098019 0.995185 0.000000
outer loop
vertex 0.000000 1.000000 1.000000
vertex 0.195090 0.980785 -1.000000
vertex 0.000000 1.000000 -1.000000
endloop
endfacet
facet normal 0.290282 0.956941 0.000000
outer loop
vertex 0.195090 0.980785 1.000000
vertex 0.382683 0.923880 -1.000000
vertex 0.195090 0.980785 -1.000000
endloop
endfacet
facet normal 0.471396 0.881921 0.000000
outer loop
vertex 0.382683 0.923880 1.000000
vertex 0.555570 0.831470 -1.000000
vertex 0.382683 0.923880 -1.000000
endloop
endfacet
facet normal 0.634393 0.773011 0.000000
outer loop
vertex 0.555570 0.831470 1.000000
vertex 0.707107 0.707107 -1.000000
vertex 0.555570 0.831470 -1.000000
endloop
endfacet
facet normal 0.773011 0.634393 0.000000
outer loop
vertex 0.707107 0.707107 1.000000
vertex 0.831470 0.555570 -1.000000
vertex 0.707107 0.707107 -1.000000
endloop
endfacet
facet normal 0.881921 0.471397 0.000000
outer loop
vertex 0.831470 0.555570 1.000000
vertex 0.923880 0.382683 -1.000000
vertex 0.831470 0.555570 -1.000000
endloop
endfacet
facet normal 0.956941 0.290281 0.000000
outer loop
vertex 0.923880 0.382683 1.000000
vertex 0.980785 0.195090 -1.000000
vertex 0.923880 0.382683 -1.000000
endloop
endfacet
facet normal 0.995185 0.098019 0.000000
outer loop
vertex 0.980785 0.195090 1.000000
vertex 1.000000 0.000000 -1.000000
vertex 0.980785 0.195090 -1.000000
endloop
endfacet
facet normal 0.995185 -0.098019 0.000000
outer loop
vertex 1.000000 0.000000 1.000000
vertex 0.980785 -0.195090 -1.000000
vertex 1.000000 0.000000 -1.000000
endloop
endfacet
facet normal 0.956941 -0.290281 0.000000
outer loop
vertex 0.980785 -0.195090 1.000000
vertex 0.923880 -0.382683 -1.000000
vertex 0.980785 -0.195090 -1.000000
endloop
endfacet
facet normal 0.881921 -0.471397 0.000000
outer loop
vertex 0.923880 -0.382683 1.000000
vertex 0.831470 -0.555570 -1.000000
vertex 0.923880 -0.382683 -1.000000
endloop
endfacet
facet normal 0.773011 -0.634392 0.000000
outer loop
vertex 0.831470 -0.555570 1.000000
vertex 0.707107 -0.707107 -1.000000
vertex 0.831470 -0.555570 -1.000000
endloop
endfacet
facet normal 0.634392 -0.773011 0.000000
outer loop
vertex 0.707107 -0.707107 1.000000
vertex 0.555570 -0.831470 -1.000000
vertex 0.707107 -0.707107 -1.000000
endloop
endfacet
facet normal 0.471397 -0.881921 0.000000
outer loop
vertex 0.555570 -0.831470 1.000000
vertex 0.382683 -0.923880 -1.000000
vertex 0.555570 -0.831470 -1.000000
endloop
endfacet
facet normal 0.290281 -0.956941 0.000000
outer loop
vertex 0.382683 -0.923880 1.000000
vertex 0.195090 -0.980785 -1.000000
vertex 0.382683 -0.923880 -1.000000
endloop
endfacet
facet normal 0.098019 -0.995185 0.000000
outer loop
vertex 0.195090 -0.980785 1.000000
vertex 0.000000 -1.000000 -1.000000
vertex 0.195090 -0.980785 -1.000000
endloop
endfacet
facet normal -0.098018 -0.995185 0.000000
outer loop
vertex 0.000000 -1.000000 1.000000
vertex -0.195091 -0.980785 -1.000000
vertex 0.000000 -1.000000 -1.000000
endloop
endfacet
facet normal -0.290286 -0.956940 0.000000
outer loop
vertex -0.195091 -0.980785 1.000000
vertex -0.382684 -0.923879 -1.000000
vertex -0.195091 -0.980785 -1.000000
endloop
endfacet
facet normal -0.471397 -0.881921 0.000000
outer loop
vertex -0.382684 -0.923879 1.000000
vertex -0.555571 -0.831469 -1.000000
vertex -0.382684 -0.923879 -1.000000
endloop
endfacet
facet normal -0.634395 -0.773009 0.000000
outer loop
vertex -0.555571 -0.831469 1.000000
vertex -0.707107 -0.707106 -1.000000
vertex -0.555571 -0.831469 -1.000000
endloop
endfacet
facet normal -0.773009 -0.634395 0.000000
outer loop
vertex -0.707107 -0.707106 1.000000
vertex -0.831470 -0.555570 -1.000000
vertex -0.707107 -0.707106 -1.000000
endloop
endfacet
facet normal -0.881921 -0.471397 0.000000
outer loop
vertex -0.831470 -0.555570 1.000000
vertex -0.923880 -0.382683 -1.000000
vertex -0.831470 -0.555570 -1.000000
endloop
endfacet
facet normal -0.956942 -0.290280 0.000000
outer loop
vertex -0.923880 -0.382683 1.000000
vertex -0.980785 -0.195089 -1.000000
vertex -0.923880 -0.382683 -1.000000
endloop
endfacet
facet normal -0.995185 -0.098019 0.000000
outer loop
vertex -0.980785 -0.195089 1.000000
vertex -1.000000 0.000001 -1.000000
vertex -0.980785 -0.195089 -1.000000
endloop
endfacet
facet normal -0.995185 0.098019 0.000000
outer loop
vertex -1.000000 0.000001 1.000000
vertex -0.980785 0.195091 -1.000000
vertex -1.000000 0.000001 -1.000000
endloop
endfacet
facet normal -0.956940 0.290286 0.000000
outer loop
vertex -0.980785 0.195091 1.000000
vertex -0.923879 0.382684 -1.000000
vertex -0.980785 0.195091 -1.000000
endloop
endfacet
facet normal -0.881921 0.471397 0.000000
outer loop
vertex -0.923879 0.382684 1.000000
vertex -0.831469 0.555571 -1.000000
vertex -0.923879 0.382684 -1.000000
endloop
endfacet
facet normal -0.773011 0.634393 0.000000
outer loop
vertex -0.831469 0.555571 1.000000
vertex -0.707106 0.707108 -1.000000
vertex -0.831469 0.555571 -1.000000
endloop
endfacet
facet normal -0.634390 0.773013 0.000000
outer loop
vertex -0.707106 0.707108 1.000000
vertex -0.555569 0.831470 -1.000000
vertex -0.707106 0.707108 -1.000000
endloop
endfacet
facet normal -0.471397 0.881921 0.000000
outer loop
vertex -0.555569 0.831470 1.000000
vertex -0.382682 0.923880 -1.000000
vertex -0.555569 0.831470 -1.000000
endloop
endfacet
facet normal -0.290286 0.956940 0.000000
outer loop
vertex -0.382682 0.923880 1.000000
vertex -0.195089 0.980786 -1.000000
vertex -0.382682 0.923880 -1.000000
endloop
endfacet
facet normal -0.098014 0.995185 0.000000
outer loop
vertex -0.195089 0.980786 1.000000
vertex 0.000000 1.000000 -1.000000
vertex -0.195089 0.980786 -1.000000
endloop
endfacet
facet normal 0.098019 0.995185 0.000000
outer loop
vertex 0.000000 1.000000 1.000000
vertex 0.195090 0.980785 1.000000
vertex 0.195090 0.980785 -1.000000
endloop
endfacet
facet normal 0.290281 0.956941 0.000000
outer loop
vertex 0.195090 0.980785 1.000000
vertex 0.382683 0.923880 1.000000
vertex 0.382683 0.923880 -1.000000
endloop
endfacet
facet normal 0.471397 0.881921 0.000000
outer loop
vertex 0.382683 0.923880 1.000000
vertex 0.555570 0.831470 1.000000
vertex 0.555570 0.831470 -1.000000
endloop
endfacet
facet normal 0.634392 0.773011 0.000000
outer loop
vertex 0.555570 0.831470 1.000000
vertex 0.707107 0.707107 1.000000
vertex 0.707107 0.707107 -1.000000
endloop
endfacet
facet normal 0.773011 0.634392 0.000000
outer loop
vertex 0.707107 0.707107 1.000000
vertex 0.831470 0.555570 1.000000
vertex 0.831470 0.555570 -1.000000
endloop
endfacet
facet normal 0.881921 0.471397 0.000000
outer loop
vertex 0.831470 0.555570 1.000000
vertex 0.923880 0.382683 1.000000
vertex 0.923880 0.382683 -1.000000
endloop
endfacet
facet normal 0.956941 0.290281 0.000000
outer loop
vertex 0.923880 0.382683 1.000000
vertex 0.980785 0.195090 1.000000
vertex 0.980785 0.195090 -1.000000
endloop
endfacet
facet normal 0.995185 0.098019 0.000000
outer loop
vertex 0.980785 0.195090 1.000000
vertex 1.000000 0.000000 1.000000
vertex 1.000000 0.000000 -1.000000
endloop
endfacet
facet normal 0.995185 -0.098019 0.000000
outer loop
vertex 1.000000 0.000000 1.000000
vertex 0.980785 -0.195090 1.000000
vertex 0.980785 -0.195090 -1.000000
endloop
endfacet
facet normal 0.956941 -0.290281 0.000000
outer loop
vertex 0.980785 -0.195090 1.000000
vertex 0.923880 -0.382683 1.000000
vertex 0.923880 -0.382683 -1.000000
endloop
endfacet
facet normal 0.881921 -0.471397 0.000000
outer loop
vertex 0.923880 -0.382683 1.000000
vertex 0.831470 -0.555570 1.000000
vertex 0.831470 -0.555570 -1.000000
endloop
endfacet
facet normal 0.773011 -0.634393 0.000000
outer loop
vertex 0.831470 -0.555570 1.000000
vertex 0.707107 -0.707107 1.000000
vertex 0.707107 -0.707107 -1.000000
endloop
endfacet
facet normal 0.634393 -0.773011 0.000000
outer loop
vertex 0.707107 -0.707107 1.000000
vertex 0.555570 -0.831470 1.000000
vertex 0.555570 -0.831470 -1.000000
endloop
endfacet
facet normal 0.471396 -0.881921 0.000000
outer loop
vertex 0.555570 -0.831470 1.000000
vertex 0.382683 -0.923880 1.000000
vertex 0.382683 -0.923880 -1.000000
endloop
endfacet
facet normal 0.290282 -0.956941 0.000000
outer loop
vertex 0.382683 -0.923880 1.000000
vertex 0.195090 -0.980785 1.000000
vertex 0.195090 -0.980785 -1.000000
endloop
endfacet
facet normal 0.098019 -0.995185 0.000000
outer loop
vertex 0.195090 -0.980785 1.000000
vertex 0.000000 -1.000000 1.000000
vertex 0.000000 -1.000000 -1.000000
endloop
endfacet
facet normal -0.098018 -0.995185 0.000000
outer loop
vertex 0.000000 -1.000000 1.000000
vertex -0.195091 -0.980785 1.000000
vertex -0.195091 -0.980785 -1.000000
endloop
endfacet
facet normal -0.290286 -0.956940 0.000000
outer loop
vertex -0.195091 -0.980785 1.000000
vertex -0.382684 -0.923879 1.000000
vertex -0.382684 -0.923879 -1.000000
endloop
endfacet
facet normal -0.471397 -0.881921 0.000000
outer loop
vertex -0.382684 -0.923879 1.000000
vertex -0.555571 -0.831469 1.000000
vertex -0.555571 -0.831469 -1.000000
endloop
endfacet
facet normal -0.634395 -0.773009 0.000000
outer loop
vertex -0.555571 -0.831469 1.000000
vertex -0.707107 -0.707106 1.000000
vertex -0.707107 -0.707106 -1.000000
endloop
endfacet
facet normal -0.773009 -0.634395 0.000000
outer loop
vertex -0.707107 -0.707106 1.000000
vertex -0.831470 -0.555570 1.000000
vertex -0.831470 -0.555570 -1.000000
endloop
endfacet
facet normal -0.881921 -0.471397 0.000000
outer loop
vertex -0.831470 -0.555570 1.000000
vertex -0.923880 -0.382683 1.000000
vertex -0.923880 -0.382683 -1.000000
endloop
endfacet
facet normal -0.956942 -0.290280 0.000000
outer loop
vertex -0.923880 -0.382683 1.000000
vertex -0.980785 -0.195089 1.000000
vertex -0.980785 -0.195089 -1.000000
endloop
endfacet
facet normal -0.995185 -0.098019 0.000000
outer loop
vertex -0.980785 -0.195089 1.000000
vertex -1.000000 0.000001 1.000000
vertex -1.000000 0.000001 -1.000000
endloop
endfacet
facet normal -0.995185 0.098019 0.000000
outer loop
vertex -1.000000 0.000001 1.000000
vertex -0.980785 0.195091 1.000000
vertex -0.980785 0.195091 -1.000000
endloop
endfacet
facet normal -0.956940 0.290286 0.000000
outer loop
vertex -0.980785 0.195091 1.000000
vertex -0.923879 0.382684 1.000000
vertex -0.923879 0.382684 -1.000000
endloop
endfacet
facet normal -0.881921 0.471396 0.000000
outer loop
vertex -0.923879 0.382684 1.000000
vertex -0.831469 0.555571 1.000000
vertex -0.831469 0.555571 -1.000000
endloop
endfacet
facet normal -0.773011 0.634392 0.000000
outer loop
vertex -0.831469 0.555571 1.000000
vertex -0.707106 0.707108 1.000000
vertex -0.707106 0.707108 -1.000000
endloop
endfacet
facet normal -0.634389 0.773014 0.000000
outer loop
vertex -0.707106 0.707108 1.000000
vertex -0.555569 0.831470 1.000000
vertex -0.555569 0.831470 -1.000000
endloop
endfacet
facet normal -0.471396 0.881921 0.000000
outer loop
vertex -0.555569 0.831470 1.000000
vertex -0.382682 0.923880 1.000000
vertex -0.382682 0.923880 -1.000000
endloop
endfacet
facet normal -0.290286 0.956940 0.000000
outer loop
vertex -0.382682 0.923880 1.000000
vertex -0.195089 0.980786 1.000000
vertex -0.195089 0.980786 -1.000000
endloop
endfacet
facet normal -0.098014 0.995185 0.000000
outer loop
vertex -0.195089 0.980786 1.000000
vertex 0.000000 1.000000 1.000000
vertex 0.000000 1.000000 -1.000000
endloop
endfacet
endsolid Exported from Blender-2.79 (sub 0)
