OFF
63 96 0
136.1 49.9 -52.89
136.1 115.1 -52.89
136.1 49.9 9.89
136.1 115.1 9.89
136.1 58.05 -52.89
136.1 66.2 -52.89
136.1 74.35 -52.89
136.1 82.5 -52.89
136.1 90.65 -52.89
136.1 98.8 -52.89
136.1 106.95 -52.89
136.1 49.9 -42.4267
136.1 49.9 -31.9633
136.1 49.9 -21.5
136.1 49.9 -11.0367
136.1 49.9 -0.573333
136.1 115.1 -42.4267
136.1 115.1 -31.9633
136.1 115.1 -21.5
136.1 115.1 -11.0367
136.1 115.1 -0.573333
136.1 58.05 9.89
136.1 66.2 9.89
136.1 74.35 9.89
136.1 82.5 9.89
136.1 90.65 9.89
136.1 98.8 9.89
136.1 106.95 9.89
136.1 58.05 -42.4267
136.1 58.05 -31.9633
136.1 58.05 -21.5
136.1 58.05 -11.0367
136.1 58.05 -0.573333
136.1 66.2 -42.4267
136.1 66.2 -31.9633
136.1 66.2 -21.5
136.1 66.2 -11.0367
136.1 66.2 -0.573333
136.1 74.35 -42.4267
136.1 74.35 -31.9633
136.1 74.35 -21.5
136.1 74.35 -11.0367
136.1 74.35 -0.573333
136.1 82.5 -42.4267
136.1 82.5 -31.9633
136.1 82.5 -21.5
136.1 82.5 -11.0367
136.1 82.5 -0.573333
136.1 90.65 -42.4267
136.1 90.65 -31.9633
136.1 90.65 -21.5
136.1 90.65 -11.0367
136.1 90.65 -0.573333
136.1 98.8 -42.4267
136.1 98.8 -31.9633
136.1 98.8 -21.5
136.1 98.8 -11.0367
136.1 98.8 -0.573333
136.1 106.95 -42.4267
136.1 106.95 -31.9633
136.1 106.95 -21.5
136.1 106.95 -11.0367
136.1 106.95 -0.573333
3 0 11 28
3 28 4 0
3 11 12 29
3 29 28 11
3 12 13 30
3 30 29 12
3 13 14 31
3 31 30 13
3 14 15 32
3 32 31 14
3 15 2 21
3 21 32 15
3 4 28 33
3 33 5 4
3 28 29 34
3 34 33 28
3 29 30 35
3 35 34 29
3 30 31 36
3 36 35 30
3 31 32 37
3 37 36 31
3 32 21 22
3 22 37 32
3 5 33 38
3 38 6 5
3 33 34 39
3 39 38 33
3 34 35 40
3 40 39 34
3 35 36 41
3 41 40 35
3 36 37 42
3 42 41 36
3 37 22 23
3 23 42 37
3 6 38 43
3 43 7 6
3 38 39 44
3 44 43 38
3 39 40 45
3 45 44 39
3 40 41 46
3 46 45 40
3 41 42 47
3 47 46 41
3 42 23 24
3 24 47 42
3 7 43 48
3 48 8 7
3 43 44 49
3 49 48 43
3 44 45 50
3 50 49 44
3 45 46 51
3 51 50 45
3 46 47 52
3 52 51 46
3 47 24 25
3 25 52 47
3 8 48 53
3 53 9 8
3 48 49 54
3 54 53 48
3 49 50 55
3 55 54 49
3 50 51 56
3 56 55 50
3 51 52 57
3 57 56 51
3 52 25 26
3 26 57 52
3 9 53 58
3 58 10 9
3 53 54 59
3 59 58 53
3 54 55 60
3 60 59 54
3 55 56 61
3 61 60 55
3 56 57 62
3 62 61 56
3 57 26 27
3 27 62 57
3 10 58 16
3 16 1 10
3 58 59 17
3 17 16 58
3 59 60 18
3 18 17 59
3 60 61 19
3 19 18 60
3 61 62 20
3 20 19 61
3 62 27 3
3 3 20 62
