OFF
203 336 0
-136.1 49.9 -52.89
136.1 49.9 -52.89
-136.1 49.9 9.89
136.1 49.9 9.89
-126.379 49.9 -52.89
-116.657 49.9 -52.89
-106.936 49.9 -52.89
-97.2143 49.9 -52.89
-87.4929 49.9 -52.89
-77.7714 49.9 -52.89
-68.05 49.9 -52.89
-58.3286 49.9 -52.89
-48.6071 49.9 -52.89
-38.8857 49.9 -52.89
-29.1643 49.9 -52.89
-19.4429 49.9 -52.89
-9.72143 49.9 -52.89
2.84217e-13 49.9 -52.89
9.72143 49.9 -52.89
19.4429 49.9 -52.89
29.1643 49.9 -52.89
38.8857 49.9 -52.89
48.6071 49.9 -52.89
58.3286 49.9 -52.89
68.05 49.9 -52.89
77.7714 49.9 -52.89
87.4929 49.9 -52.89
97.2143 49.9 -52.89
106.936 49.9 -52.89
116.657 49.9 -52.89
126.379 49.9 -52.89
-136.1 49.9 -42.4267
-136.1 49.9 -31.9633
-136.1 49.9 -21.5
-136.1 49.9 -11.0367
-136.1 49.9 -0.573333
136.1 49.9 -42.4267
136.1 49.9 -31.9633
136.1 49.9 -21.5
136.1 49.9 -11.0367
136.1 49.9 -0.573333
-126.379 49.9 9.89
-116.657 49.9 9.89
-106.936 49.9 9.89
-97.2143 49.9 9.89
-87.4929 49.9 9.89
-77.7714 49.9 9.89
-68.05 49.9 9.89
-58.3286 49.9 9.89
-48.6071 49.9 9.89
-38.8857 49.9 9.89
-29.1643 49.9 9.89
-19.4429 49.9 9.89
-9.72143 49.9 9.89
2.84217e-13 49.9 9.89
9.72143 49.9 9.89
19.4429 49.9 9.89
29.1643 49.9 9.89
38.8857 49.9 9.89
48.6071 49.9 9.89
58.3286 49.9 9.89
68.05 49.9 9.89
77.7714 49.9 9.89
87.4929 49.9 9.89
97.2143 49.9 9.89
106.936 49.9 9.89
116.657 49.9 9.89
126.379 49.9 9.89
-126.379 49.9 -42.4267
-126.379 49.9 -31.9633
-126.379 49.9 -21.5
-126.379 49.9 -11.0367
-126.379 49.9 -0.573333
-116.657 49.9 -42.4267
-116.657 49.9 -31.9633
-116.657 49.9 -21.5
-116.657 49.9 -11.0367
-116.657 49.9 -0.573333
-106.936 49.9 -42.4267
-106.936 49.9 -31.9633
-106.936 49.9 -21.5
-106.936 49.9 -11.0367
-106.936 49.9 -0.573333
-97.2143 49.9 -42.4267
-97.2143 49.9 -31.9633
-97.2143 49.9 -21.5
-97.2143 49.9 -11.0367
-97.2143 49.9 -0.573333
-87.4929 49.9 -42.4267
-87.4929 49.9 -31.9633
-87.4929 49.9 -21.5
-87.4929 49.9 -11.0367
-87.4929 49.9 -0.573333
-77.7714 49.9 -42.4267
-77.7714 49.9 -31.9633
-77.7714 49.9 -21.5
-77.7714 49.9 -11.0367
-77.7714 49.9 -0.573333
-68.05 49.9 -42.4267
-68.05 49.9 -31.9633
-68.05 49.9 -21.5
-68.05 49.9 -11.0367
-68.05 49.9 -0.573333
-58.3286 49.9 -42.4267
-58.3286 49.9 -31.9633
-58.3286 49.9 -21.5
-58.3286 49.9 -11.0367
-58.3286 49.9 -0.573333
-48.6071 49.9 -42.4267
-48.6071 49.9 -31.9633
-48.6071 49.9 -21.5
-48.6071 49.9 -11.0367
-48.6071 49.9 -0.573333
-38.8857 49.9 -42.4267
-38.8857 49.9 -31.9633
-38.8857 49.9 -21.5
-38.8857 49.9 -11.0367
-38.8857 49.9 -0.573333
-29.1643 49.9 -42.4267
-29.1643 49.9 -31.9633
-29.1643 49.9 -21.5
-29.1643 49.9 -11.0367
-29.1643 49.9 -0.573333
-19.4429 49.9 -42.4267
-19.4429 49.9 -31.9633
-19.4429 49.9 -21.5
-19.4429 49.9 -11.0367
-19.4429 49.9 -0.573333
-9.72143 49.9 -42.4267
-9.72143 49.9 -31.9633
-9.72143 49.9 -21.5
-9.72143 49.9 -11.0367
-9.72143 49.9 -0.573333
2.84217e-13 49.9 -42.4267
2.84217e-13 49.9 -31.9633
2.84217e-13 49.9 -21.5
2.84217e-13 49.9 -11.0367
2.84217e-13 49.9 -0.573333
9.72143 49.9 -42.4267
9.72143 49.9 -31.9633
9.72143 49.9 -21.5
9.72143 49.9 -11.0367
9.72143 49.9 -0.573333
19.4429 49.9 -42.4267
19.4429 49.9 -31.9633
19.4429 49.9 -21.5
19.4429 49.9 -11.0367
19.4429 49.9 -0.573333
29.1643 49.9 -42.4267
29.1643 49.9 -31.9633
29.1643 49.9 -21.5
29.1643 49.9 -11.0367
29.1643 49.9 -0.573333
38.8857 49.9 -42.4267
38.8857 49.9 -31.9633
38.8857 49.9 -21.5
38.8857 49.9 -11.0367
38.8857 49.9 -0.573333
48.6071 49.9 -42.4267
48.6071 49.9 -31.9633
48.6071 49.9 -21.5
48.6071 49.9 -11.0367
48.6071 49.9 -0.573333
58.3286 49.9 -42.4267
58.3286 49.9 -31.9633
58.3286 49.9 -21.5
58.3286 49.9 -11.0367
58.3286 49.9 -0.573333
68.05 49.9 -42.4267
68.05 49.9 -31.9633
68.05 49.9 -21.5
68.05 49.9 -11.0367
68.05 49.9 -0.573333
77.7714 49.9 -42.4267
77.7714 49.9 -31.9633
77.7714 49.9 -21.5
77.7714 49.9 -11.0367
77.7714 49.9 -0.573333
87.4929 49.9 -42.4267
87.4929 49.9 -31.9633
87.4929 49.9 -21.5
87.4929 49.9 -11.0367
87.4929 49.9 -0.573333
97.2143 49.9 -42.4267
97.2143 49.9 -31.9633
97.2143 49.9 -21.5
97.2143 49.9 -11.0367
97.2143 49.9 -0.573333
106.936 49.9 -42.4267
106.936 49.9 -31.9633
106.936 49.9 -21.5
106.936 49.9 -11.0367
106.936 49.9 -0.573333
116.657 49.9 -42.4267
116.657 49.9 -31.9633
116.657 49.9 -21.5
116.657 49.9 -11.0367
116.657 49.9 -0.573333
126.379 49.9 -42.4267
126.379 49.9 -31.9633
126.379 49.9 -21.5
126.379 49.9 -11.0367
126.379 49.9 -0.573333
3 0 31 68
3 68 4 0
3 31 32 69
3 69 68 31
3 32 33 70
3 70 69 32
3 33 34 71
3 71 70 33
3 34 35 72
3 72 71 34
3 35 2 41
3 41 72 35
3 4 68 73
3 73 5 4
3 68 69 74
3 74 73 68
3 69 70 75
3 75 74 69
3 70 71 76
3 76 75 70
3 71 72 77
3 77 76 71
3 72 41 42
3 42 77 72
3 5 73 78
3 78 6 5
3 73 74 79
3 79 78 73
3 74 75 80
3 80 79 74
3 75 76 81
3 81 80 75
3 76 77 82
3 82 81 76
3 77 42 43
3 43 82 77
3 6 78 83
3 83 7 6
3 78 79 84
3 84 83 78
3 79 80 85
3 85 84 79
3 80 81 86
3 86 85 80
3 81 82 87
3 87 86 81
3 82 43 44
3 44 87 82
3 7 83 88
3 88 8 7
3 83 84 89
3 89 88 83
3 84 85 90
3 90 89 84
3 85 86 91
3 91 90 85
3 86 87 92
3 92 91 86
3 87 44 45
3 45 92 87
3 8 88 93
3 93 9 8
3 88 89 94
3 94 93 88
3 89 90 95
3 95 94 89
3 90 91 96
3 96 95 90
3 91 92 97
3 97 96 91
3 92 45 46
3 46 97 92
3 9 93 98
3 98 10 9
3 93 94 99
3 99 98 93
3 94 95 100
3 100 99 94
3 95 96 101
3 101 100 95
3 96 97 102
3 102 101 96
3 97 46 47
3 47 102 97
3 10 98 103
3 103 11 10
3 98 99 104
3 104 103 98
3 99 100 105
3 105 104 99
3 100 101 106
3 106 105 100
3 101 102 107
3 107 106 101
3 102 47 48
3 48 107 102
3 11 103 108
3 108 12 11
3 103 104 109
3 109 108 103
3 104 105 110
3 110 109 104
3 105 106 111
3 111 110 105
3 106 107 112
3 112 111 106
3 107 48 49
3 49 112 107
3 12 108 113
3 113 13 12
3 108 109 114
3 114 113 108
3 109 110 115
3 115 114 109
3 110 111 116
3 116 115 110
3 111 112 117
3 117 116 111
3 112 49 50
3 50 117 112
3 13 113 118
3 118 14 13
3 113 114 119
3 119 118 113
3 114 115 120
3 120 119 114
3 115 116 121
3 121 120 115
3 116 117 122
3 122 121 116
3 117 50 51
3 51 122 117
3 14 118 123
3 123 15 14
3 118 119 124
3 124 123 118
3 119 120 125
3 125 124 119
3 120 121 126
3 126 125 120
3 121 122 127
3 127 126 121
3 122 51 52
3 52 127 122
3 15 123 128
3 128 16 15
3 123 124 129
3 129 128 123
3 124 125 130
3 130 129 124
3 125 126 131
3 131 130 125
3 126 127 132
3 132 131 126
3 127 52 53
3 53 132 127
3 16 128 133
3 133 17 16
3 128 129 134
3 134 133 128
3 129 130 135
3 135 134 129
3 130 131 136
3 136 135 130
3 131 132 137
3 137 136 131
3 132 53 54
3 54 137 132
3 17 133 138
3 138 18 17
3 133 134 139
3 139 138 133
3 134 135 140
3 140 139 134
3 135 136 141
3 141 140 135
3 136 137 142
3 142 141 136
3 137 54 55
3 55 142 137
3 18 138 143
3 143 19 18
3 138 139 144
3 144 143 138
3 139 140 145
3 145 144 139
3 140 141 146
3 146 145 140
3 141 142 147
3 147 146 141
3 142 55 56
3 56 147 142
3 19 143 148
3 148 20 19
3 143 144 149
3 149 148 143
3 144 145 150
3 150 149 144
3 145 146 151
3 151 150 145
3 146 147 152
3 152 151 146
3 147 56 57
3 57 152 147
3 20 148 153
3 153 21 20
3 148 149 154
3 154 153 148
3 149 150 155
3 155 154 149
3 150 151 156
3 156 155 150
3 151 152 157
3 157 156 151
3 152 57 58
3 58 157 152
3 21 153 158
3 158 22 21
3 153 154 159
3 159 158 153
3 154 155 160
3 160 159 154
3 155 156 161
3 161 160 155
3 156 157 162
3 162 161 156
3 157 58 59
3 59 162 157
3 22 158 163
3 163 23 22
3 158 159 164
3 164 163 158
3 159 160 165
3 165 164 159
3 160 161 166
3 166 165 160
3 161 162 167
3 167 166 161
3 162 59 60
3 60 167 162
3 23 163 168
3 168 24 23
3 163 164 169
3 169 168 163
3 164 165 170
3 170 169 164
3 165 166 171
3 171 170 165
3 166 167 172
3 172 171 166
3 167 60 61
3 61 172 167
3 24 168 173
3 173 25 24
3 168 169 174
3 174 173 168
3 169 170 175
3 175 174 169
3 170 171 176
3 176 175 170
3 171 172 177
3 177 176 171
3 172 61 62
3 62 177 172
3 25 173 178
3 178 26 25
3 173 174 179
3 179 178 173
3 174 175 180
3 180 179 174
3 175 176 181
3 181 180 175
3 176 177 182
3 182 181 176
3 177 62 63
3 63 182 177
3 26 178 183
3 183 27 26
3 178 179 184
3 184 183 178
3 179 180 185
3 185 184 179
3 180 181 186
3 186 185 180
3 181 182 187
3 187 186 181
3 182 63 64
3 64 187 182
3 27 183 188
3 188 28 27
3 183 184 189
3 189 188 183
3 184 185 190
3 190 189 184
3 185 186 191
3 191 190 185
3 186 187 192
3 192 191 186
3 187 64 65
3 65 192 187
3 28 188 193
3 193 29 28
3 188 189 194
3 194 193 188
3 189 190 195
3 195 194 189
3 190 191 196
3 196 195 190
3 191 192 197
3 197 196 191
3 192 65 66
3 66 197 192
3 29 193 198
3 198 30 29
3 193 194 199
3 199 198 193
3 194 195 200
3 200 199 194
3 195 196 201
3 201 200 195
3 196 197 202
3 202 201 196
3 197 66 67
3 67 202 197
3 30 198 36
3 36 1 30
3 198 199 37
3 37 36 198
3 199 200 38
3 38 37 199
3 200 201 39
3 39 38 200
3 201 202 40
3 40 39 201
3 202 67 3
3 3 40 202
