OFF
91 144 0
-320.9 -115.1 -52.89
-215.9 -115.1 -52.89
-320.9 -115.1 9.89
-215.9 -115.1 9.89
-312.15 -115.1 -52.89
-303.4 -115.1 -52.89
-294.65 -115.1 -52.89
-285.9 -115.1 -52.89
-277.15 -115.1 -52.89
-268.4 -115.1 -52.89
-259.65 -115.1 -52.89
-250.9 -115.1 -52.89
-242.15 -115.1 -52.89
-233.4 -115.1 -52.89
-224.65 -115.1 -52.89
-320.9 -115.1 -42.4267
-320.9 -115.1 -31.9633
-320.9 -115.1 -21.5
-320.9 -115.1 -11.0367
-320.9 -115.1 -0.573333
-215.9 -115.1 -42.4267
-215.9 -115.1 -31.9633
-215.9 -115.1 -21.5
-215.9 -115.1 -11.0367
-215.9 -115.1 -0.573333
-312.15 -115.1 9.89
-303.4 -115.1 9.89
-294.65 -115.1 9.89
-285.9 -115.1 9.89
-277.15 -115.1 9.89
-268.4 -115.1 9.89
-259.65 -115.1 9.89
-250.9 -115.1 9.89
-242.15 -115.1 9.89
-233.4 -115.1 9.89
-224.65 -115.1 9.89
-312.15 -115.1 -42.4267
-312.15 -115.1 -31.9633
-312.15 -115.1 -21.5
-312.15 -115.1 -11.0367
-312.15 -115.1 -0.573333
-303.4 -115.1 -42.4267
-303.4 -115.1 -31.9633
-303.4 -115.1 -21.5
-303.4 -115.1 -11.0367
-303.4 -115.1 -0.573333
-294.65 -115.1 -42.4267
-294.65 -115.1 -31.9633
-294.65 -115.1 -21.5
-294.65 -115.1 -11.0367
-294.65 -115.1 -0.573333
-285.9 -115.1 -42.4267
-285.9 -115.1 -31.9633
-285.9 -115.1 -21.5
-285.9 -115.1 -11.0367
-285.9 -115.1 -0.573333
-277.15 -115.1 -42.4267
-277.15 -115.1 -31.9633
-277.15 -115.1 -21.5
-277.15 -115.1 -11.0367
-277.15 -115.1 -0.573333
-268.4 -115.1 -42.4267
-268.4 -115.1 -31.9633
-268.4 -115.1 -21.5
-268.4 -115.1 -11.0367
-268.4 -115.1 -0.573333
-259.65 -115.1 -42.4267
-259.65 -115.1 -31.9633
-259.65 -115.1 -21.5
-259.65 -115.1 -11.0367
-259.65 -115.1 -0.573333
-250.9 -115.1 -42.4267
-250.9 -115.1 -31.9633
-250.9 -115.1 -21.5
-250.9 -115.1 -11.0367
-250.9 -115.1 -0.573333
-242.15 -115.1 -42.4267
-242.15 -115.1 -31.9633
-242.15 -115.1 -21.5
-242.15 -115.1 -11.0367
-242.15 -115.1 -0.573333
-233.4 -115.1 -42.4267
-233.4 -115.1 -31.9633
-233.4 -115.1 -21.5
-233.4 -115.1 -11.0367
-233.4 -115.1 -0.573333
-224.65 -115.1 -42.4267
-224.65 -115.1 -31.9633
-224.65 -115.1 -21.5
-224.65 -115.1 -11.0367
-224.65 -115.1 -0.573333
3 0 15 36
3 36 4 0
3 15 16 37
3 37 36 15
3 16 17 38
3 38 37 16
3 17 18 39
3 39 38 17
3 18 19 40
3 40 39 18
3 19 2 25
3 25 40 19
3 4 36 41
3 41 5 4
3 36 37 42
3 42 41 36
3 37 38 43
3 43 42 37
3 38 39 44
3 44 43 38
3 39 40 45
3 45 44 39
3 40 25 26
3 26 45 40
3 5 41 46
3 46 6 5
3 41 42 47
3 47 46 41
3 42 43 48
3 48 47 42
3 43 44 49
3 49 48 43
3 44 45 50
3 50 49 44
3 45 26 27
3 27 50 45
3 6 46 51
3 51 7 6
3 46 47 52
3 52 51 46
3 47 48 53
3 53 52 47
3 48 49 54
3 54 53 48
3 49 50 55
3 55 54 49
3 50 27 28
3 28 55 50
3 7 51 56
3 56 8 7
3 51 52 57
3 57 56 51
3 52 53 58
3 58 57 52
3 53 54 59
3 59 58 53
3 54 55 60
3 60 59 54
3 55 28 29
3 29 60 55
3 8 56 61
3 61 9 8
3 56 57 62
3 62 61 56
3 57 58 63
3 63 62 57
3 58 59 64
3 64 63 58
3 59 60 65
3 65 64 59
3 60 29 30
3 30 65 60
3 9 61 66
3 66 10 9
3 61 62 67
3 67 66 61
3 62 63 68
3 68 67 62
3 63 64 69
3 69 68 63
3 64 65 70
3 70 69 64
3 65 30 31
3 31 70 65
3 10 66 71
3 71 11 10
3 66 67 72
3 72 71 66
3 67 68 73
3 73 72 67
3 68 69 74
3 74 73 68
3 69 70 75
3 75 74 69
3 70 31 32
3 32 75 70
3 11 71 76
3 76 12 11
3 71 72 77
3 77 76 71
3 72 73 78
3 78 77 72
3 73 74 79
3 79 78 73
3 74 75 80
3 80 79 74
3 75 32 33
3 33 80 75
3 12 76 81
3 81 13 12
3 76 77 82
3 82 81 76
3 77 78 83
3 83 82 77
3 78 79 84
3 84 83 78
3 79 80 85
3 85 84 79
3 80 33 34
3 34 85 80
3 13 81 86
3 86 14 13
3 81 82 87
3 87 86 81
3 82 83 88
3 88 87 82
3 83 84 89
3 89 88 83
3 84 85 90
3 90 89 84
3 85 34 35
3 35 90 85
3 14 86 20
3 20 1 14
3 86 87 21
3 21 20 86
3 87 88 22
3 22 21 87
3 88 89 23
3 23 22 88
3 89 90 24
3 24 23 89
3 90 35 3
3 3 24 90
