OFF
217 360 0
-320.9 -204.9 -52.89
-31.1 -204.9 -52.89
-320.9 -204.9 9.89
-31.1 -204.9 9.89
-40.76 -204.9 -52.89
-50.42 -204.9 -52.89
-60.08 -204.9 -52.89
-69.74 -204.9 -52.89
-79.4 -204.9 -52.89
-89.06 -204.9 -52.89
-98.72 -204.9 -52.89
-108.38 -204.9 -52.89
-118.04 -204.9 -52.89
-127.7 -204.9 -52.89
-137.36 -204.9 -52.89
-147.02 -204.9 -52.89
-156.68 -204.9 -52.89
-166.34 -204.9 -52.89
-176 -204.9 -52.89
-185.66 -204.9 -52.89
-195.32 -204.9 -52.89
-204.98 -204.9 -52.89
-214.64 -204.9 -52.89
-224.3 -204.9 -52.89
-233.96 -204.9 -52.89
-243.62 -204.9 -52.89
-253.28 -204.9 -52.89
-262.94 -204.9 -52.89
-272.6 -204.9 -52.89
-282.26 -204.9 -52.89
-291.92 -204.9 -52.89
-301.58 -204.9 -52.89
-311.24 -204.9 -52.89
-320.9 -204.9 -42.4267
-320.9 -204.9 -31.9633
-320.9 -204.9 -21.5
-320.9 -204.9 -11.0367
-320.9 -204.9 -0.573333
-31.1 -204.9 -42.4267
-31.1 -204.9 -31.9633
-31.1 -204.9 -21.5
-31.1 -204.9 -11.0367
-31.1 -204.9 -0.573333
-40.76 -204.9 9.89
-50.42 -204.9 9.89
-60.08 -204.9 9.89
-69.74 -204.9 9.89
-79.4 -204.9 9.89
-89.06 -204.9 9.89
-98.72 -204.9 9.89
-108.38 -204.9 9.89
-118.04 -204.9 9.89
-127.7 -204.9 9.89
-137.36 -204.9 9.89
-147.02 -204.9 9.89
-156.68 -204.9 9.89
-166.34 -204.9 9.89
-176 -204.9 9.89
-185.66 -204.9 9.89
-195.32 -204.9 9.89
-204.98 -204.9 9.89
-214.64 -204.9 9.89
-224.3 -204.9 9.89
-233.96 -204.9 9.89
-243.62 -204.9 9.89
-253.28 -204.9 9.89
-262.94 -204.9 9.89
-272.6 -204.9 9.89
-282.26 -204.9 9.89
-291.92 -204.9 9.89
-301.58 -204.9 9.89
-311.24 -204.9 9.89
-40.76 -204.9 -42.4267
-40.76 -204.9 -31.9633
-40.76 -204.9 -21.5
-40.76 -204.9 -11.0367
-40.76 -204.9 -0.573333
-50.42 -204.9 -42.4267
-50.42 -204.9 -31.9633
-50.42 -204.9 -21.5
-50.42 -204.9 -11.0367
-50.42 -204.9 -0.573333
-60.08 -204.9 -42.4267
-60.08 -204.9 -31.9633
-60.08 -204.9 -21.5
-60.08 -204.9 -11.0367
-60.08 -204.9 -0.573333
-69.74 -204.9 -42.4267
-69.74 -204.9 -31.9633
-69.74 -204.9 -21.5
-69.74 -204.9 -11.0367
-69.74 -204.9 -0.573333
-79.4 -204.9 -42.4267
-79.4 -204.9 -31.9633
-79.4 -204.9 -21.5
-79.4 -204.9 -11.0367
-79.4 -204.9 -0.573333
-89.06 -204.9 -42.4267
-89.06 -204.9 -31.9633
-89.06 -204.9 -21.5
-89.06 -204.9 -11.0367
-89.06 -204.9 -0.573333
-98.72 -204.9 -42.4267
-98.72 -204.9 -31.9633
-98.72 -204.9 -21.5
-98.72 -204.9 -11.0367
-98.72 -204.9 -0.573333
-108.38 -204.9 -42.4267
-108.38 -204.9 -31.9633
-108.38 -204.9 -21.5
-108.38 -204.9 -11.0367
-108.38 -204.9 -0.573333
-118.04 -204.9 -42.4267
-118.04 -204.9 -31.9633
-118.04 -204.9 -21.5
-118.04 -204.9 -11.0367
-118.04 -204.9 -0.573333
-127.7 -204.9 -42.4267
-127.7 -204.9 -31.9633
-127.7 -204.9 -21.5
-127.7 -204.9 -11.0367
-127.7 -204.9 -0.573333
-137.36 -204.9 -42.4267
-137.36 -204.9 -31.9633
-137.36 -204.9 -21.5
-137.36 -204.9 -11.0367
-137.36 -204.9 -0.573333
-147.02 -204.9 -42.4267
-147.02 -204.9 -31.9633
-147.02 -204.9 -21.5
-147.02 -204.9 -11.0367
-147.02 -204.9 -0.573333
-156.68 -204.9 -42.4267
-156.68 -204.9 -31.9633
-156.68 -204.9 -21.5
-156.68 -204.9 -11.0367
-156.68 -204.9 -0.573333
-166.34 -204.9 -42.4267
-166.34 -204.9 -31.9633
-166.34 -204.9 -21.5
-166.34 -204.9 -11.0367
-166.34 -204.9 -0.573333
-176 -204.9 -42.4267
-176 -204.9 -31.9633
-176 -204.9 -21.5
-176 -204.9 -11.0367
-176 -204.9 -0.573333
-185.66 -204.9 -42.4267
-185.66 -204.9 -31.9633
-185.66 -204.9 -21.5
-185.66 -204.9 -11.0367
-185.66 -204.9 -0.573333
-195.32 -204.9 -42.4267
-195.32 -204.9 -31.9633
-195.32 -204.9 -21.5
-195.32 -204.9 -11.0367
-195.32 -204.9 -0.573333
-204.98 -204.9 -42.4267
-204.98 -204.9 -31.9633
-204.98 -204.9 -21.5
-204.98 -204.9 -11.0367
-204.98 -204.9 -0.573333
-214.64 -204.9 -42.4267
-214.64 -204.9 -31.9633
-214.64 -204.9 -21.5
-214.64 -204.9 -11.0367
-214.64 -204.9 -0.573333
-224.3 -204.9 -42.4267
-224.3 -204.9 -31.9633
-224.3 -204.9 -21.5
-224.3 -204.9 -11.0367
-224.3 -204.9 -0.573333
-233.96 -204.9 -42.4267
-233.96 -204.9 -31.9633
-233.96 -204.9 -21.5
-233.96 -204.9 -11.0367
-233.96 -204.9 -0.573333
-243.62 -204.9 -42.4267
-243.62 -204.9 -31.9633
-243.62 -204.9 -21.5
-243.62 -204.9 -11.0367
-243.62 -204.9 -0.573333
-253.28 -204.9 -42.4267
-253.28 -204.9 -31.9633
-253.28 -204.9 -21.5
-253.28 -204.9 -11.0367
-253.28 -204.9 -0.573333
-262.94 -204.9 -42.4267
-262.94 -204.9 -31.9633
-262.94 -204.9 -21.5
-262.94 -204.9 -11.0367
-262.94 -204.9 -0.573333
-272.6 -204.9 -42.4267
-272.6 -204.9 -31.9633
-272.6 -204.9 -21.5
-272.6 -204.9 -11.0367
-272.6 -204.9 -0.573333
-282.26 -204.9 -42.4267
-282.26 -204.9 -31.9633
-282.26 -204.9 -21.5
-282.26 -204.9 -11.0367
-282.26 -204.9 -0.573333
-291.92 -204.9 -42.4267
-291.92 -204.9 -31.9633
-291.92 -204.9 -21.5
-291.92 -204.9 -11.0367
-291.92 -204.9 -0.573333
-301.58 -204.9 -42.4267
-301.58 -204.9 -31.9633
-301.58 -204.9 -21.5
-301.58 -204.9 -11.0367
-301.58 -204.9 -0.573333
-311.24 -204.9 -42.4267
-311.24 -204.9 -31.9633
-311.24 -204.9 -21.5
-311.24 -204.9 -11.0367
-311.24 -204.9 -0.573333
3 1 38 72
3 72 4 1
3 38 39 73
3 73 72 38
3 39 40 74
3 74 73 39
3 40 41 75
3 75 74 40
3 41 42 76
3 76 75 41
3 42 3 43
3 43 76 42
3 4 72 77
3 77 5 4
3 72 73 78
3 78 77 72
3 73 74 79
3 79 78 73
3 74 75 80
3 80 79 74
3 75 76 81
3 81 80 75
3 76 43 44
3 44 81 76
3 5 77 82
3 82 6 5
3 77 78 83
3 83 82 77
3 78 79 84
3 84 83 78
3 79 80 85
3 85 84 79
3 80 81 86
3 86 85 80
3 81 44 45
3 45 86 81
3 6 82 87
3 87 7 6
3 82 83 88
3 88 87 82
3 83 84 89
3 89 88 83
3 84 85 90
3 90 89 84
3 85 86 91
3 91 90 85
3 86 45 46
3 46 91 86
3 7 87 92
3 92 8 7
3 87 88 93
3 93 92 87
3 88 89 94
3 94 93 88
3 89 90 95
3 95 94 89
3 90 91 96
3 96 95 90
3 91 46 47
3 47 96 91
3 8 92 97
3 97 9 8
3 92 93 98
3 98 97 92
3 93 94 99
3 99 98 93
3 94 95 100
3 100 99 94
3 95 96 101
3 101 100 95
3 96 47 48
3 48 101 96
3 9 97 102
3 102 10 9
3 97 98 103
3 103 102 97
3 98 99 104
3 104 103 98
3 99 100 105
3 105 104 99
3 100 101 106
3 106 105 100
3 101 48 49
3 49 106 101
3 10 102 107
3 107 11 10
3 102 103 108
3 108 107 102
3 103 104 109
3 109 108 103
3 104 105 110
3 110 109 104
3 105 106 111
3 111 110 105
3 106 49 50
3 50 111 106
3 11 107 112
3 112 12 11
3 107 108 113
3 113 112 107
3 108 109 114
3 114 113 108
3 109 110 115
3 115 114 109
3 110 111 116
3 116 115 110
3 111 50 51
3 51 116 111
3 12 112 117
3 117 13 12
3 112 113 118
3 118 117 112
3 113 114 119
3 119 118 113
3 114 115 120
3 120 119 114
3 115 116 121
3 121 120 115
3 116 51 52
3 52 121 116
3 13 117 122
3 122 14 13
3 117 118 123
3 123 122 117
3 118 119 124
3 124 123 118
3 119 120 125
3 125 124 119
3 120 121 126
3 126 125 120
3 121 52 53
3 53 126 121
3 14 122 127
3 127 15 14
3 122 123 128
3 128 127 122
3 123 124 129
3 129 128 123
3 124 125 130
3 130 129 124
3 125 126 131
3 131 130 125
3 126 53 54
3 54 131 126
3 15 127 132
3 132 16 15
3 127 128 133
3 133 132 127
3 128 129 134
3 134 133 128
3 129 130 135
3 135 134 129
3 130 131 136
3 136 135 130
3 131 54 55
3 55 136 131
3 16 132 137
3 137 17 16
3 132 133 138
3 138 137 132
3 133 134 139
3 139 138 133
3 134 135 140
3 140 139 134
3 135 136 141
3 141 140 135
3 136 55 56
3 56 141 136
3 17 137 142
3 142 18 17
3 137 138 143
3 143 142 137
3 138 139 144
3 144 143 138
3 139 140 145
3 145 144 139
3 140 141 146
3 146 145 140
3 141 56 57
3 57 146 141
3 18 142 147
3 147 19 18
3 142 143 148
3 148 147 142
3 143 144 149
3 149 148 143
3 144 145 150
3 150 149 144
3 145 146 151
3 151 150 145
3 146 57 58
3 58 151 146
3 19 147 152
3 152 20 19
3 147 148 153
3 153 152 147
3 148 149 154
3 154 153 148
3 149 150 155
3 155 154 149
3 150 151 156
3 156 155 150
3 151 58 59
3 59 156 151
3 20 152 157
3 157 21 20
3 152 153 158
3 158 157 152
3 153 154 159
3 159 158 153
3 154 155 160
3 160 159 154
3 155 156 161
3 161 160 155
3 156 59 60
3 60 161 156
3 21 157 162
3 162 22 21
3 157 158 163
3 163 162 157
3 158 159 164
3 164 163 158
3 159 160 165
3 165 164 159
3 160 161 166
3 166 165 160
3 161 60 61
3 61 166 161
3 22 162 167
3 167 23 22
3 162 163 168
3 168 167 162
3 163 164 169
3 169 168 163
3 164 165 170
3 170 169 164
3 165 166 171
3 171 170 165
3 166 61 62
3 62 171 166
3 23 167 172
3 172 24 23
3 167 168 173
3 173 172 167
3 168 169 174
3 174 173 168
3 169 170 175
3 175 174 169
3 170 171 176
3 176 175 170
3 171 62 63
3 63 176 171
3 24 172 177
3 177 25 24
3 172 173 178
3 178 177 172
3 173 174 179
3 179 178 173
3 174 175 180
3 180 179 174
3 175 176 181
3 181 180 175
3 176 63 64
3 64 181 176
3 25 177 182
3 182 26 25
3 177 178 183
3 183 182 177
3 178 179 184
3 184 183 178
3 179 180 185
3 185 184 179
3 180 181 186
3 186 185 180
3 181 64 65
3 65 186 181
3 26 182 187
3 187 27 26
3 182 183 188
3 188 187 182
3 183 184 189
3 189 188 183
3 184 185 190
3 190 189 184
3 185 186 191
3 191 190 185
3 186 65 66
3 66 191 186
3 27 187 192
3 192 28 27
3 187 188 193
3 193 192 187
3 188 189 194
3 194 193 188
3 189 190 195
3 195 194 189
3 190 191 196
3 196 195 190
3 191 66 67
3 67 196 191
3 28 192 197
3 197 29 28
3 192 193 198
3 198 197 192
3 193 194 199
3 199 198 193
3 194 195 200
3 200 199 194
3 195 196 201
3 201 200 195
3 196 67 68
3 68 201 196
3 29 197 202
3 202 30 29
3 197 198 203
3 203 202 197
3 198 199 204
3 204 203 198
3 199 200 205
3 205 204 199
3 200 201 206
3 206 205 200
3 201 68 69
3 69 206 201
3 30 202 207
3 207 31 30
3 202 203 208
3 208 207 202
3 203 204 209
3 209 208 203
3 204 205 210
3 210 209 204
3 205 206 211
3 211 210 205
3 206 69 70
3 70 211 206
3 31 207 212
3 212 32 31
3 207 208 213
3 213 212 207
3 208 209 214
3 214 213 208
3 209 210 215
3 215 214 209
3 210 211 216
3 216 215 210
3 211 70 71
3 71 216 211
3 32 212 33
3 33 0 32
3 212 213 34
3 34 33 212
3 213 214 35
3 35 34 213
3 214 215 36
3 36 35 214
3 215 216 37
3 37 36 215
3 216 71 2
3 2 37 216
