OFF
77 120 0
270.9 -115.1 -52.89
270.9 -204.9 -52.89
270.9 -115.1 9.89
270.9 -204.9 9.89
270.9 -124.08 -52.89
270.9 -133.06 -52.89
270.9 -142.04 -52.89
270.9 -151.02 -52.89
270.9 -160 -52.89
270.9 -168.98 -52.89
270.9 -177.96 -52.89
270.9 -186.94 -52.89
270.9 -195.92 -52.89
270.9 -115.1 -42.4267
270.9 -115.1 -31.9633
270.9 -115.1 -21.5
270.9 -115.1 -11.0367
270.9 -115.1 -0.573333
270.9 -204.9 -42.4267
270.9 -204.9 -31.9633
270.9 -204.9 -21.5
270.9 -204.9 -11.0367
270.9 -204.9 -0.573333
270.9 -124.08 9.89
270.9 -133.06 9.89
270.9 -142.04 9.89
270.9 -151.02 9.89
270.9 -160 9.89
270.9 -168.98 9.89
270.9 -177.96 9.89
270.9 -186.94 9.89
270.9 -195.92 9.89
270.9 -124.08 -42.4267
270.9 -124.08 -31.9633
270.9 -124.08 -21.5
270.9 -124.08 -11.0367
270.9 -124.08 -0.573333
270.9 -133.06 -42.4267
270.9 -133.06 -31.9633
270.9 -133.06 -21.5
270.9 -133.06 -11.0367
270.9 -133.06 -0.573333
270.9 -142.04 -42.4267
270.9 -142.04 -31.9633
270.9 -142.04 -21.5
270.9 -142.04 -11.0367
270.9 -142.04 -0.573333
270.9 -151.02 -42.4267
270.9 -151.02 -31.9633
270.9 -151.02 -21.5
270.9 -151.02 -11.0367
270.9 -151.02 -0.573333
270.9 -160 -42.4267
270.9 -160 -31.9633
270.9 -160 -21.5
270.9 -160 -11.0367
270.9 -160 -0.573333
270.9 -168.98 -42.4267
270.9 -168.98 -31.9633
270.9 -168.98 -21.5
270.9 -168.98 -11.0367
270.9 -168.98 -0.573333
270.9 -177.96 -42.4267
270.9 -177.96 -31.9633
270.9 -177.96 -21.5
270.9 -177.96 -11.0367
270.9 -177.96 -0.573333
270.9 -186.94 -42.4267
270.9 -186.94 -31.9633
270.9 -186.94 -21.5
270.9 -186.94 -11.0367
270.9 -186.94 -0.573333
270.9 -195.92 -42.4267
270.9 -195.92 -31.9633
270.9 -195.92 -21.5
270.9 -195.92 -11.0367
270.9 -195.92 -0.573333
3 0 13 32
3 32 4 0
3 13 14 33
3 33 32 13
3 14 15 34
3 34 33 14
3 15 16 35
3 35 34 15
3 16 17 36
3 36 35 16
3 17 2 23
3 23 36 17
3 4 32 37
3 37 5 4
3 32 33 38
3 38 37 32
3 33 34 39
3 39 38 33
3 34 35 40
3 40 39 34
3 35 36 41
3 41 40 35
3 36 23 24
3 24 41 36
3 5 37 42
3 42 6 5
3 37 38 43
3 43 42 37
3 38 39 44
3 44 43 38
3 39 40 45
3 45 44 39
3 40 41 46
3 46 45 40
3 41 24 25
3 25 46 41
3 6 42 47
3 47 7 6
3 42 43 48
3 48 47 42
3 43 44 49
3 49 48 43
3 44 45 50
3 50 49 44
3 45 46 51
3 51 50 45
3 46 25 26
3 26 51 46
3 7 47 52
3 52 8 7
3 47 48 53
3 53 52 47
3 48 49 54
3 54 53 48
3 49 50 55
3 55 54 49
3 50 51 56
3 56 55 50
3 51 26 27
3 27 56 51
3 8 52 57
3 57 9 8
3 52 53 58
3 58 57 52
3 53 54 59
3 59 58 53
3 54 55 60
3 60 59 54
3 55 56 61
3 61 60 55
3 56 27 28
3 28 61 56
3 9 57 62
3 62 10 9
3 57 58 63
3 63 62 57
3 58 59 64
3 64 63 58
3 59 60 65
3 65 64 59
3 60 61 66
3 66 65 60
3 61 28 29
3 29 66 61
3 10 62 67
3 67 11 10
3 62 63 68
3 68 67 62
3 63 64 69
3 69 68 63
3 64 65 70
3 70 69 64
3 65 66 71
3 71 70 65
3 66 29 30
3 30 71 66
3 11 67 72
3 72 12 11
3 67 68 73
3 73 72 67
3 68 69 74
3 74 73 68
3 69 70 75
3 75 74 69
3 70 71 76
3 76 75 70
3 71 30 31
3 31 76 71
3 12 72 18
3 18 1 12
3 72 73 19
3 19 18 72
3 73 74 20
3 20 19 73
3 74 75 21
3 21 20 74
3 75 76 22
3 22 21 75
3 76 31 3
3 3 22 76
