OFF
175 288 0
215.9 115.1 -52.89
215.9 -115.1 -52.89
215.9 115.1 9.89
215.9 -115.1 9.89
215.9 105.508 -52.89
215.9 95.9167 -52.89
215.9 86.325 -52.89
215.9 76.7333 -52.89
215.9 67.1417 -52.89
215.9 57.55 -52.89
215.9 47.9583 -52.89
215.9 38.3667 -52.89
215.9 28.775 -52.89
215.9 19.1833 -52.89
215.9 9.59167 -52.89
215.9 -7.81597e-13 -52.89
215.9 -9.59167 -52.89
215.9 -19.1833 -52.89
215.9 -28.775 -52.89
215.9 -38.3667 -52.89
215.9 -47.9583 -52.89
215.9 -57.55 -52.89
215.9 -67.1417 -52.89
215.9 -76.7333 -52.89
215.9 -86.325 -52.89
215.9 -95.9167 -52.89
215.9 -105.508 -52.89
215.9 115.1 -42.4267
215.9 115.1 -31.9633
215.9 115.1 -21.5
215.9 115.1 -11.0367
215.9 115.1 -0.573333
215.9 -115.1 -42.4267
215.9 -115.1 -31.9633
215.9 -115.1 -21.5
215.9 -115.1 -11.0367
215.9 -115.1 -0.573333
215.9 105.508 9.89
215.9 95.9167 9.89
215.9 86.325 9.89
215.9 76.7333 9.89
215.9 67.1417 9.89
215.9 57.55 9.89
215.9 47.9583 9.89
215.9 38.3667 9.89
215.9 28.775 9.89
215.9 19.1833 9.89
215.9 9.59167 9.89
215.9 -7.81597e-13 9.89
215.9 -9.59167 9.89
215.9 -19.1833 9.89
215.9 -28.775 9.89
215.9 -38.3667 9.89
215.9 -47.9583 9.89
215.9 -57.55 9.89
215.9 -67.1417 9.89
215.9 -76.7333 9.89
215.9 -86.325 9.89
215.9 -95.9167 9.89
215.9 -105.508 9.89
215.9 105.508 -42.4267
215.9 105.508 -31.9633
215.9 105.508 -21.5
215.9 105.508 -11.0367
215.9 105.508 -0.573333
215.9 95.9167 -42.4267
215.9 95.9167 -31.9633
215.9 95.9167 -21.5
215.9 95.9167 -11.0367
215.9 95.9167 -0.573333
215.9 86.325 -42.4267
215.9 86.325 -31.9633
215.9 86.325 -21.5
215.9 86.325 -11.0367
215.9 86.325 -0.573333
215.9 76.7333 -42.4267
215.9 76.7333 -31.9633
215.9 76.7333 -21.5
215.9 76.7333 -11.0367
215.9 76.7333 -0.573333
215.9 67.1417 -42.4267
215.9 67.1417 -31.9633
215.9 67.1417 -21.5
215.9 67.1417 -11.0367
215.9 67.1417 -0.573333
215.9 57.55 -42.4267
215.9 57.55 -31.9633
215.9 57.55 -21.5
215.9 57.55 -11.0367
215.9 57.55 -0.573333
215.9 47.9583 -42.4267
215.9 47.9583 -31.9633
215.9 47.9583 -21.5
215.9 47.9583 -11.0367
215.9 47.9583 -0.573333
215.9 38.3667 -42.4267
215.9 38.3667 -31.9633
215.9 38.3667 -21.5
215.9 38.3667 -11.0367
215.9 38.3667 -0.573333
215.9 28.775 -42.4267
215.9 28.775 -31.9633
215.9 28.775 -21.5
215.9 28.775 -11.0367
215.9 28.775 -0.573333
215.9 19.1833 -42.4267
215.9 19.1833 -31.9633
215.9 19.1833 -21.5
215.9 19.1833 -11.0367
215.9 19.1833 -0.573333
215.9 9.59167 -42.4267
215.9 9.59167 -31.9633
215.9 9.59167 -21.5
215.9 9.59167 -11.0367
215.9 9.59167 -0.573333
215.9 -7.81597e-13 -42.4267
215.9 -7.81597e-13 -31.9633
215.9 -7.81597e-13 -21.5
215.9 -7.81597e-13 -11.0367
215.9 -7.81597e-13 -0.573333
215.9 -9.59167 -42.4267
215.9 -9.59167 -31.9633
215.9 -9.59167 -21.5
215.9 -9.59167 -11.0367
215.9 -9.59167 -0.573333
215.9 -19.1833 -42.4267
215.9 -19.1833 -31.9633
215.9 -19.1833 -21.5
215.9 -19.1833 -11.0367
215.9 -19.1833 -0.573333
215.9 -28.775 -42.4267
215.9 -28.775 -31.9633
215.9 -28.775 -21.5
215.9 -28.775 -11.0367
215.9 -28.775 -0.573333
215.9 -38.3667 -42.4267
215.9 -38.3667 -31.9633
215.9 -38.3667 -21.5
215.9 -38.3667 -11.0367
215.9 -38.3667 -0.573333
215.9 -47.9583 -42.4267
215.9 -47.9583 -31.9633
215.9 -47.9583 -21.5
215.9 -47.9583 -11.0367
215.9 -47.9583 -0.573333
215.9 -57.55 -42.4267
215.9 -57.55 -31.9633
215.9 -57.55 -21.5
215.9 -57.55 -11.0367
215.9 -57.55 -0.573333
215.9 -67.1417 -42.4267
215.9 -67.1417 -31.9633
215.9 -67.1417 -21.5
215.9 -67.1417 -11.0367
215.9 -67.1417 -0.573333
215.9 -76.7333 -42.4267
215.9 -76.7333 -31.9633
215.9 -76.7333 -21.5
215.9 -76.7333 -11.0367
215.9 -76.7333 -0.573333
215.9 -86.325 -42.4267
215.9 -86.325 -31.9633
215.9 -86.325 -21.5
215.9 -86.325 -11.0367
215.9 -86.325 -0.573333
215.9 -95.9167 -42.4267
215.9 -95.9167 -31.9633
215.9 -95.9167 -21.5
215.9 -95.9167 -11.0367
215.9 -95.9167 -0.573333
215.9 -105.508 -42.4267
215.9 -105.508 -31.9633
215.9 -105.508 -21.5
215.9 -105.508 -11.0367
215.9 -105.508 -0.573333
3 0 27 60
3 60 4 0
3 27 28 61
3 61 60 27
3 28 29 62
3 62 61 28
3 29 30 63
3 63 62 29
3 30 31 64
3 64 63 30
3 31 2 37
3 37 64 31
3 4 60 65
3 65 5 4
3 60 61 66
3 66 65 60
3 61 62 67
3 67 66 61
3 62 63 68
3 68 67 62
3 63 64 69
3 69 68 63
3 64 37 38
3 38 69 64
3 5 65 70
3 70 6 5
3 65 66 71
3 71 70 65
3 66 67 72
3 72 71 66
3 67 68 73
3 73 72 67
3 68 69 74
3 74 73 68
3 69 38 39
3 39 74 69
3 6 70 75
3 75 7 6
3 70 71 76
3 76 75 70
3 71 72 77
3 77 76 71
3 72 73 78
3 78 77 72
3 73 74 79
3 79 78 73
3 74 39 40
3 40 79 74
3 7 75 80
3 80 8 7
3 75 76 81
3 81 80 75
3 76 77 82
3 82 81 76
3 77 78 83
3 83 82 77
3 78 79 84
3 84 83 78
3 79 40 41
3 41 84 79
3 8 80 85
3 85 9 8
3 80 81 86
3 86 85 80
3 81 82 87
3 87 86 81
3 82 83 88
3 88 87 82
3 83 84 89
3 89 88 83
3 84 41 42
3 42 89 84
3 9 85 90
3 90 10 9
3 85 86 91
3 91 90 85
3 86 87 92
3 92 91 86
3 87 88 93
3 93 92 87
3 88 89 94
3 94 93 88
3 89 42 43
3 43 94 89
3 10 90 95
3 95 11 10
3 90 91 96
3 96 95 90
3 91 92 97
3 97 96 91
3 92 93 98
3 98 97 92
3 93 94 99
3 99 98 93
3 94 43 44
3 44 99 94
3 11 95 100
3 100 12 11
3 95 96 101
3 101 100 95
3 96 97 102
3 102 101 96
3 97 98 103
3 103 102 97
3 98 99 104
3 104 103 98
3 99 44 45
3 45 104 99
3 12 100 105
3 105 13 12
3 100 101 106
3 106 105 100
3 101 102 107
3 107 106 101
3 102 103 108
3 108 107 102
3 103 104 109
3 109 108 103
3 104 45 46
3 46 109 104
3 13 105 110
3 110 14 13
3 105 106 111
3 111 110 105
3 106 107 112
3 112 111 106
3 107 108 113
3 113 112 107
3 108 109 114
3 114 113 108
3 109 46 47
3 47 114 109
3 14 110 115
3 115 15 14
3 110 111 116
3 116 115 110
3 111 112 117
3 117 116 111
3 112 113 118
3 118 117 112
3 113 114 119
3 119 118 113
3 114 47 48
3 48 119 114
3 15 115 120
3 120 16 15
3 115 116 121
3 121 120 115
3 116 117 122
3 122 121 116
3 117 118 123
3 123 122 117
3 118 119 124
3 124 123 118
3 119 48 49
3 49 124 119
3 16 120 125
3 125 17 16
3 120 121 126
3 126 125 120
3 121 122 127
3 127 126 121
3 122 123 128
3 128 127 122
3 123 124 129
3 129 128 123
3 124 49 50
3 50 129 124
3 17 125 130
3 130 18 17
3 125 126 131
3 131 130 125
3 126 127 132
3 132 131 126
3 127 128 133
3 133 132 127
3 128 129 134
3 134 133 128
3 129 50 51
3 51 134 129
3 18 130 135
3 135 19 18
3 130 131 136
3 136 135 130
3 131 132 137
3 137 136 131
3 132 133 138
3 138 137 132
3 133 134 139
3 139 138 133
3 134 51 52
3 52 139 134
3 19 135 140
3 140 20 19
3 135 136 141
3 141 140 135
3 136 137 142
3 142 141 136
3 137 138 143
3 143 142 137
3 138 139 144
3 144 143 138
3 139 52 53
3 53 144 139
3 20 140 145
3 145 21 20
3 140 141 146
3 146 145 140
3 141 142 147
3 147 146 141
3 142 143 148
3 148 147 142
3 143 144 149
3 149 148 143
3 144 53 54
3 54 149 144
3 21 145 150
3 150 22 21
3 145 146 151
3 151 150 145
3 146 147 152
3 152 151 146
3 147 148 153
3 153 152 147
3 148 149 154
3 154 153 148
3 149 54 55
3 55 154 149
3 22 150 155
3 155 23 22
3 150 151 156
3 156 155 150
3 151 152 157
3 157 156 151
3 152 153 158
3 158 157 152
3 153 154 159
3 159 158 153
3 154 55 56
3 56 159 154
3 23 155 160
3 160 24 23
3 155 156 161
3 161 160 155
3 156 157 162
3 162 161 156
3 157 158 163
3 163 162 157
3 158 159 164
3 164 163 158
3 159 56 57
3 57 164 159
3 24 160 165
3 165 25 24
3 160 161 166
3 166 165 160
3 161 162 167
3 167 166 161
3 162 163 168
3 168 167 162
3 163 164 169
3 169 168 163
3 164 57 58
3 58 169 164
3 25 165 170
3 170 26 25
3 165 166 171
3 171 170 165
3 166 167 172
3 172 171 166
3 167 168 173
3 173 172 167
3 168 169 174
3 174 173 168
3 169 58 59
3 59 174 169
3 26 170 32
3 32 1 26
3 170 171 33
3 33 32 170
3 171 172 34
3 34 33 171
3 172 173 35
3 35 34 172
3 173 174 36
3 36 35 173
3 174 59 3
3 3 36 174
