OFF
147 240 0
81.1 204.9 -52.89
270.9 204.9 -52.89
81.1 204.9 9.89
270.9 204.9 9.89
90.59 204.9 -52.89
100.08 204.9 -52.89
109.57 204.9 -52.89
119.06 204.9 -52.89
128.55 204.9 -52.89
138.04 204.9 -52.89
147.53 204.9 -52.89
157.02 204.9 -52.89
166.51 204.9 -52.89
176 204.9 -52.89
185.49 204.9 -52.89
194.98 204.9 -52.89
204.47 204.9 -52.89
213.96 204.9 -52.89
223.45 204.9 -52.89
232.94 204.9 -52.89
242.43 204.9 -52.89
251.92 204.9 -52.89
261.41 204.9 -52.89
81.1 204.9 -42.4267
81.1 204.9 -31.9633
81.1 204.9 -21.5
81.1 204.9 -11.0367
81.1 204.9 -0.573333
270.9 204.9 -42.4267
270.9 204.9 -31.9633
270.9 204.9 -21.5
270.9 204.9 -11.0367
270.9 204.9 -0.573333
90.59 204.9 9.89
100.08 204.9 9.89
109.57 204.9 9.89
119.06 204.9 9.89
128.55 204.9 9.89
138.04 204.9 9.89
147.53 204.9 9.89
157.02 204.9 9.89
166.51 204.9 9.89
176 204.9 9.89
185.49 204.9 9.89
194.98 204.9 9.89
204.47 204.9 9.89
213.96 204.9 9.89
223.45 204.9 9.89
232.94 204.9 9.89
242.43 204.9 9.89
251.92 204.9 9.89
261.41 204.9 9.89
90.59 204.9 -42.4267
90.59 204.9 -31.9633
90.59 204.9 -21.5
90.59 204.9 -11.0367
90.59 204.9 -0.573333
100.08 204.9 -42.4267
100.08 204.9 -31.9633
100.08 204.9 -21.5
100.08 204.9 -11.0367
100.08 204.9 -0.573333
109.57 204.9 -42.4267
109.57 204.9 -31.9633
109.57 204.9 -21.5
109.57 204.9 -11.0367
109.57 204.9 -0.573333
119.06 204.9 -42.4267
119.06 204.9 -31.9633
119.06 204.9 -21.5
119.06 204.9 -11.0367
119.06 204.9 -0.573333
128.55 204.9 -42.4267
128.55 204.9 -31.9633
128.55 204.9 -21.5
128.55 204.9 -11.0367
128.55 204.9 -0.573333
138.04 204.9 -42.4267
138.04 204.9 -31.9633
138.04 204.9 -21.5
138.04 204.9 -11.0367
138.04 204.9 -0.573333
147.53 204.9 -42.4267
147.53 204.9 -31.9633
147.53 204.9 -21.5
147.53 204.9 -11.0367
147.53 204.9 -0.573333
157.02 204.9 -42.4267
157.02 204.9 -31.9633
157.02 204.9 -21.5
157.02 204.9 -11.0367
157.02 204.9 -0.573333
166.51 204.9 -42.4267
166.51 204.9 -31.9633
166.51 204.9 -21.5
166.51 204.9 -11.0367
166.51 204.9 -0.573333
176 204.9 -42.4267
176 204.9 -31.9633
176 204.9 -21.5
176 204.9 -11.0367
176 204.9 -0.573333
185.49 204.9 -42.4267
185.49 204.9 -31.9633
185.49 204.9 -21.5
185.49 204.9 -11.0367
185.49 204.9 -0.573333
194.98 204.9 -42.4267
194.98 204.9 -31.9633
194.98 204.9 -21.5
194.98 204.9 -11.0367
194.98 204.9 -0.573333
204.47 204.9 -42.4267
204.47 204.9 -31.9633
204.47 204.9 -21.5
204.47 204.9 -11.0367
204.47 204.9 -0.573333
213.96 204.9 -42.4267
213.96 204.9 -31.9633
213.96 204.9 -21.5
213.96 204.9 -11.0367
213.96 204.9 -0.573333
223.45 204.9 -42.4267
223.45 204.9 -31.9633
223.45 204.9 -21.5
223.45 204.9 -11.0367
223.45 204.9 -0.573333
232.94 204.9 -42.4267
232.94 204.9 -31.9633
232.94 204.9 -21.5
232.94 204.9 -11.0367
232.94 204.9 -0.573333
242.43 204.9 -42.4267
242.43 204.9 -31.9633
242.43 204.9 -21.5
242.43 204.9 -11.0367
242.43 204.9 -0.573333
251.92 204.9 -42.4267
251.92 204.9 -31.9633
251.92 204.9 -21.5
251.92 204.9 -11.0367
251.92 204.9 -0.573333
261.41 204.9 -42.4267
261.41 204.9 -31.9633
261.41 204.9 -21.5
261.41 204.9 -11.0367
261.41 204.9 -0.573333
3 0 23 52
3 52 4 0
3 23 24 53
3 53 52 23
3 24 25 54
3 54 53 24
3 25 26 55
3 55 54 25
3 26 27 56
3 56 55 26
3 27 2 33
3 33 56 27
3 4 52 57
3 57 5 4
3 52 53 58
3 58 57 52
3 53 54 59
3 59 58 53
3 54 55 60
3 60 59 54
3 55 56 61
3 61 60 55
3 56 33 34
3 34 61 56
3 5 57 62
3 62 6 5
3 57 58 63
3 63 62 57
3 58 59 64
3 64 63 58
3 59 60 65
3 65 64 59
3 60 61 66
3 66 65 60
3 61 34 35
3 35 66 61
3 6 62 67
3 67 7 6
3 62 63 68
3 68 67 62
3 63 64 69
3 69 68 63
3 64 65 70
3 70 69 64
3 65 66 71
3 71 70 65
3 66 35 36
3 36 71 66
3 7 67 72
3 72 8 7
3 67 68 73
3 73 72 67
3 68 69 74
3 74 73 68
3 69 70 75
3 75 74 69
3 70 71 76
3 76 75 70
3 71 36 37
3 37 76 71
3 8 72 77
3 77 9 8
3 72 73 78
3 78 77 72
3 73 74 79
3 79 78 73
3 74 75 80
3 80 79 74
3 75 76 81
3 81 80 75
3 76 37 38
3 38 81 76
3 9 77 82
3 82 10 9
3 77 78 83
3 83 82 77
3 78 79 84
3 84 83 78
3 79 80 85
3 85 84 79
3 80 81 86
3 86 85 80
3 81 38 39
3 39 86 81
3 10 82 87
3 87 11 10
3 82 83 88
3 88 87 82
3 83 84 89
3 89 88 83
3 84 85 90
3 90 89 84
3 85 86 91
3 91 90 85
3 86 39 40
3 40 91 86
3 11 87 92
3 92 12 11
3 87 88 93
3 93 92 87
3 88 89 94
3 94 93 88
3 89 90 95
3 95 94 89
3 90 91 96
3 96 95 90
3 91 40 41
3 41 96 91
3 12 92 97
3 97 13 12
3 92 93 98
3 98 97 92
3 93 94 99
3 99 98 93
3 94 95 100
3 100 99 94
3 95 96 101
3 101 100 95
3 96 41 42
3 42 101 96
3 13 97 102
3 102 14 13
3 97 98 103
3 103 102 97
3 98 99 104
3 104 103 98
3 99 100 105
3 105 104 99
3 100 101 106
3 106 105 100
3 101 42 43
3 43 106 101
3 14 102 107
3 107 15 14
3 102 103 108
3 108 107 102
3 103 104 109
3 109 108 103
3 104 105 110
3 110 109 104
3 105 106 111
3 111 110 105
3 106 43 44
3 44 111 106
3 15 107 112
3 112 16 15
3 107 108 113
3 113 112 107
3 108 109 114
3 114 113 108
3 109 110 115
3 115 114 109
3 110 111 116
3 116 115 110
3 111 44 45
3 45 116 111
3 16 112 117
3 117 17 16
3 112 113 118
3 118 117 112
3 113 114 119
3 119 118 113
3 114 115 120
3 120 119 114
3 115 116 121
3 121 120 115
3 116 45 46
3 46 121 116
3 17 117 122
3 122 18 17
3 117 118 123
3 123 122 117
3 118 119 124
3 124 123 118
3 119 120 125
3 125 124 119
3 120 121 126
3 126 125 120
3 121 46 47
3 47 126 121
3 18 122 127
3 127 19 18
3 122 123 128
3 128 127 122
3 123 124 129
3 129 128 123
3 124 125 130
3 130 129 124
3 125 126 131
3 131 130 125
3 126 47 48
3 48 131 126
3 19 127 132
3 132 20 19
3 127 128 133
3 133 132 127
3 128 129 134
3 134 133 128
3 129 130 135
3 135 134 129
3 130 131 136
3 136 135 130
3 131 48 49
3 49 136 131
3 20 132 137
3 137 21 20
3 132 133 138
3 138 137 132
3 133 134 139
3 139 138 133
3 134 135 140
3 140 139 134
3 135 136 141
3 141 140 135
3 136 49 50
3 50 141 136
3 21 137 142
3 142 22 21
3 137 138 143
3 143 142 137
3 138 139 144
3 144 143 138
3 139 140 145
3 145 144 139
3 140 141 146
3 146 145 140
3 141 50 51
3 51 146 141
3 22 142 28
3 28 1 22
3 142 143 29
3 29 28 142
3 143 144 30
3 30 29 143
3 144 145 31
3 31 30 144
3 145 146 32
3 32 31 145
3 146 51 3
3 3 32 146
