OFF
49 72 0
81.1 -115.1 -52.89
136.1 -115.1 -52.89
81.1 -115.1 9.89
136.1 -115.1 9.89
90.2667 -115.1 -52.89
99.4333 -115.1 -52.89
108.6 -115.1 -52.89
117.767 -115.1 -52.89
126.933 -115.1 -52.89
81.1 -115.1 -42.4267
81.1 -115.1 -31.9633
81.1 -115.1 -21.5
81.1 -115.1 -11.0367
81.1 -115.1 -0.573333
136.1 -115.1 -42.4267
136.1 -115.1 -31.9633
136.1 -115.1 -21.5
136.1 -115.1 -11.0367
136.1 -115.1 -0.573333
90.2667 -115.1 9.89
99.4333 -115.1 9.89
108.6 -115.1 9.89
117.767 -115.1 9.89
126.933 -115.1 9.89
90.2667 -115.1 -42.4267
90.2667 -115.1 -31.9633
90.2667 -115.1 -21.5
90.2667 -115.1 -11.0367
90.2667 -115.1 -0.573333
99.4333 -115.1 -42.4267
99.4333 -115.1 -31.9633
99.4333 -115.1 -21.5
99.4333 -115.1 -11.0367
99.4333 -115.1 -0.573333
108.6 -115.1 -42.4267
108.6 -115.1 -31.9633
108.6 -115.1 -21.5
108.6 -115.1 -11.0367
108.6 -115.1 -0.573333
117.767 -115.1 -42.4267
117.767 -115.1 -31.9633
117.767 -115.1 -21.5
117.767 -115.1 -11.0367
117.767 -115.1 -0.573333
126.933 -115.1 -42.4267
126.933 -115.1 -31.9633
126.933 -115.1 -21.5
126.933 -115.1 -11.0367
126.933 -115.1 -0.573333
3 0 9 24
3 24 4 0
3 9 10 25
3 25 24 9
3 10 11 26
3 26 25 10
3 11 12 27
3 27 26 11
3 12 13 28
3 28 27 12
3 13 2 19
3 19 28 13
3 4 24 29
3 29 5 4
3 24 25 30
3 30 29 24
3 25 26 31
3 31 30 25
3 26 27 32
3 32 31 26
3 27 28 33
3 33 32 27
3 28 19 20
3 20 33 28
3 5 29 34
3 34 6 5
3 29 30 35
3 35 34 29
3 30 31 36
3 36 35 30
3 31 32 37
3 37 36 31
3 32 33 38
3 38 37 32
3 33 20 21
3 21 38 33
3 6 34 39
3 39 7 6
3 34 35 40
3 40 39 34
3 35 36 41
3 41 40 35
3 36 37 42
3 42 41 36
3 37 38 43
3 43 42 37
3 38 21 22
3 22 43 38
3 7 39 44
3 44 8 7
3 39 40 45
3 45 44 39
3 40 41 46
3 46 45 40
3 41 42 47
3 47 46 41
3 42 43 48
3 48 47 42
3 43 22 23
3 23 48 43
3 8 44 14
3 14 1 8
3 44 45 15
3 15 14 44
3 45 46 16
3 16 15 45
3 46 47 17
3 17 16 46
3 47 48 18
3 18 17 47
3 48 23 3
3 3 18 48
